<?xml version="1.0" encoding="utf-8"?>
<!-- Generator: Adobe Illustrator 26.0.3, SVG Export Plug-In . SVG Version: 6.00 Build 0)  -->
<svg version="1.1" id="Layer_1" xmlns="http://www.w3.org/2000/svg" xmlns:xlink="http://www.w3.org/1999/xlink" x="0px" y="0px"
	 viewBox="0 0 1920 1080" style="enable-background:new 0 0 1920 1080;" xml:space="preserve">
<g>
	<path d="M731.54,467.89v52.81h14.02v6.66h-36.2v-6.66h14.02v-52.81h-14.02v-6.66h36.2v6.66H731.54z"/>
	<path d="M813.79,461.23v66.14h-13.82l-30.04-51.92c-1.69-3.18-3.08-6.07-4.18-8.65v60.57h-8.25v-66.14h13.92l30.04,52.02
		c1.29,2.29,2.88,5.57,4.18,8.55v-60.57H813.79z"/>
	<path d="M882.22,461.23l-23.87,66.14h-11.94l-23.97-66.14h8.65l18.5,51.02c1.09,2.88,2.09,5.87,2.88,8.75
		c0.8-2.88,1.79-5.87,2.78-8.75l18.6-51.02H882.22z"/>
	<path d="M911.07,467.89v52.81h14.02v6.66h-36.2v-6.66h14.02v-52.81h-14.02v-6.66h36.2v6.66H911.07z"/>
	<path d="M941.7,504.69c0.2,10.24,5.47,17.7,20.79,17.7c13.62,0,17.8-4.67,17.8-12.33c0-6.96-3.68-10.44-12.04-11.83l-15.61-2.39
		c-11.54-1.69-16.81-7.36-16.81-17.31c0-10.64,8.06-19.1,25.16-19.1c17.31,0,25.86,8.75,26.75,21.48h-7.96
		c-0.89-8.95-6.46-15.02-18.9-15.02c-11.74,0-16.71,5.07-16.71,12.43c0,5.17,2.49,9.25,9.95,10.44l16.51,2.49
		c11.74,1.89,18,7.06,18,17.7c0,12.63-7.76,19.89-26.16,19.89c-21.48,0-28.84-11.14-28.84-24.17H941.7z"/>
	<path d="M1019.28,467.89v52.81h14.02v6.66h-36.2v-6.66h14.02v-52.81H997.1v-6.66h36.2v6.66H1019.28z"/>
	<path d="M1097.85,509.56c0,10.84-6.56,17.8-20.29,17.8h-32.32v-66.14h32.52c14.12,0,19,7.26,19,16.41
		c0,9.55-5.77,14.32-12.43,15.52C1091.58,494.05,1097.85,499.12,1097.85,509.56z M1053.49,467.89v22.08h21.48
		c9.35,0,13.13-3.88,13.13-11.14c0-7.46-2.79-10.94-12.03-10.94H1053.49z M1089.2,508.67c0-7.86-4.08-12.43-14.02-12.43h-21.68
		v24.47h23.27C1086.01,520.7,1089.2,515.73,1089.2,508.67z"/>
	<path d="M1152.75,520.7v6.66h-42.87v-66.14h8.25v59.47H1152.75z"/>
	<path d="M1210.64,520.7v6.66h-49.23v-66.14h48.93v6.66h-40.68v22.18h37.69v6.56h-37.69v24.07H1210.64z"/>
	<path d="M759.79,572.23c0,10.54-5.77,19.39-20.39,19.39h-21.58v27.45h-8.35v-66.14h30.33
		C754.02,552.93,759.79,561.59,759.79,572.23z M751.14,572.23c0-7.86-3.58-12.63-13.13-12.63h-20.19v25.36h19.89
		C747.55,584.96,751.14,579.79,751.14,572.23z"/>
	<path d="M805.04,602.17h-32.82l-6.46,16.91h-8.25l25.06-66.14h12.23l25.06,66.14h-8.35L805.04,602.17z M802.56,595.5l-13.92-36.6
		l-13.92,36.6H802.56z"/>
	<path d="M877.65,608.53c0,4.87,0.7,8.06,1.29,10.54h-8.06c-0.7-2.19-1.19-5.47-1.19-10.24v-6.07c0-9.45-5.07-13.33-14.22-13.33
		h-18.6v29.64h-8.25v-66.14h30.83c13.63,0,20.29,6.76,20.29,17.41c0,8.85-5.47,15.02-12.83,16.71c6.27,1.79,10.74,4.77,10.74,14.52
		V608.53z M871.08,571.03c0-7.66-3.88-11.44-12.53-11.44h-21.68v23.67h21.58C867.7,583.27,871.08,578.59,871.08,571.03z"/>
	<path d="M940.9,559.6h-23.67v59.58h-8.16V559.6h-23.87v-6.66h55.7V559.6z"/>
	<path d="M952.94,596.4c0.2,10.24,5.47,17.7,20.79,17.7c13.62,0,17.8-4.67,17.8-12.33c0-6.96-3.68-10.44-12.03-11.83l-15.62-2.39
		c-11.54-1.69-16.81-7.36-16.81-17.31c0-10.64,8.06-19.1,25.16-19.1c17.31,0,25.86,8.75,26.75,21.48h-7.96
		c-0.89-8.95-6.46-15.02-18.9-15.02c-11.74,0-16.71,5.07-16.71,12.43c0,5.17,2.49,9.25,9.95,10.44l16.51,2.49
		c11.74,1.89,18,7.06,18,17.7c0,12.63-7.76,19.89-26.16,19.89c-21.48,0-28.84-11.14-28.84-24.17H952.94z"/>
	<path d="M1210.64,552.93v43.76h-6.66l0.1-32.22l-38.49,38.49l-4.97-4.97l38.49-38.49l-32.22,0.1v-6.66H1210.64z"/>
</g>
</svg>
